<svg width="29" height="29" viewBox="0 0 29 29" fill="none" xmlns="http://www.w3.org/2000/svg">
<path fill-rule="evenodd" clip-rule="evenodd" d="M18.2792 2.27816C17.5501 1.10645 15.7754 0.283745 14.3142 0.757894C12.3662 1.39116 12.0524 4.50295 12.3268 5.92881C13.0513 9.69781 17.9457 10.5954 19.4128 6.74957C19.936 5.37976 19.0041 3.44269 18.2792 2.27816ZM27.8187 7.02346C27.4826 5.82213 26.1513 4.65734 24.762 4.69898C22.9115 4.75345 21.8497 7.37524 21.7264 8.68393C21.4008 12.1397 25.4203 14.1582 27.669 11.1919C28.4708 10.1348 28.152 8.21799 27.8187 7.02346ZM12.1888 14.7153C13.0203 13.3266 14.2811 12.4743 15.9551 12.2755C17.2692 12.1183 18.4283 12.5848 19.5901 13.0524C19.8532 13.1583 20.1164 13.2642 20.3816 13.363C21.1345 13.6432 21.8803 13.7733 22.6225 13.9028C23.3726 14.0336 24.1189 14.1639 24.8651 14.4476C29.3562 16.1543 29.5664 22.0126 25.0744 23.9018C24.0724 24.3232 23.0439 24.3395 22.0227 24.3557C21.0311 24.3715 20.0463 24.3871 19.0995 24.7735C18.1646 25.1556 17.4532 25.8489 16.7439 26.5404C16.0286 27.2376 15.3153 27.9329 14.3768 28.3049C9.66317 30.1726 5.98176 23.6843 9.53372 20.194C10.1571 19.5818 10.6105 18.8179 10.9504 18.013C11.1009 17.6586 11.2403 17.2194 11.3854 16.7625C11.6164 16.0347 11.8617 15.2619 12.1888 14.7153ZM1.74619 14.7386C2.79765 13.8302 4.56628 13.8948 5.58466 14.6149C6.59635 15.3317 8.05241 16.6194 8.09761 17.9444C8.22296 21.6635 3.8289 22.6329 1.90386 19.746C1.17345 18.6527 0.344027 15.9487 1.74619 14.7386ZM5.5385 4.78302C6.85583 3.99137 8.77007 4.39513 9.744 5.37168C10.712 6.34209 12.0556 8.02109 11.8546 9.47269C11.2912 13.55 6.32143 13.7769 4.76596 10.2688C4.17591 8.94034 3.7823 5.83761 5.5385 4.78302Z" fill="#FFB600"/>
</svg>
