<svg width="31" height="30" viewBox="0 0 31 30" fill="none" xmlns="http://www.w3.org/2000/svg">
<path fill-rule="evenodd" clip-rule="evenodd" d="M25.8564 7.21095C26.0924 5.74901 25.2363 3.8325 23.7198 3.18628C21.6972 2.32568 19.2501 4.62235 18.4672 5.96945C16.3969 9.52968 19.7245 13.7056 23.6221 11.6279C25.0109 10.8883 25.6222 8.66417 25.8564 7.21095ZM30.2304 17.7734C30.8052 16.5645 30.549 14.6837 29.3955 13.7382C27.8598 12.478 25.1528 13.851 24.1307 14.823C21.4315 17.3897 23.2611 21.8559 27.1713 21.0408C28.5651 20.7505 29.6582 18.9749 30.2304 17.7734ZM12.1604 12.9814C13.812 12.4438 15.4329 12.6428 16.9275 13.6618C18.1015 14.4608 18.7106 15.6552 19.3211 16.8525L19.3211 16.8525C19.4593 17.1236 19.5976 17.3948 19.7426 17.6617C20.1543 18.419 20.6661 19.0499 21.1753 19.6778L21.1753 19.6778L21.1753 19.6778L21.1753 19.6778C21.69 20.3124 22.2021 20.9438 22.6059 21.6993C25.0368 26.2457 21.0778 31.1339 16.1118 29.4965C15.004 29.1312 14.1603 28.4195 13.3226 27.7129L13.3226 27.7129C12.5091 27.0267 11.7013 26.3453 10.6629 25.9906C9.63714 25.6407 8.57288 25.7004 7.51163 25.7599C6.44138 25.8199 5.37418 25.8798 4.35261 25.5192C-0.77765 23.7082 0.816624 15.8637 6.15066 15.543C7.08657 15.4871 7.99179 15.1885 8.83419 14.7768C9.20572 14.5962 9.62807 14.3391 10.0675 14.0716C10.7673 13.6455 11.5105 13.1931 12.1604 12.9814ZM3.69642 5.63974C5.18742 5.64583 6.57296 6.94463 6.88942 8.24506C7.20279 9.5381 7.47336 11.6062 6.57604 12.7102C4.05615 15.8078 -0.18243 13.4952 0.294726 9.80246C0.47425 8.40309 1.70899 5.63059 3.69642 5.63974ZM13.7801 0.257226C15.404 0.545158 16.6683 2.22104 16.768 3.69764C16.8673 5.16508 16.7711 7.47061 15.5853 8.5035C12.2557 11.4055 8.07459 8.08624 9.28854 4.15147C9.74746 2.66066 11.6158 -0.127266 13.7801 0.257226Z" fill="#A385F6"/>
</svg>
