<svg width="93" height="39" viewBox="0 0 93 39" fill="none" xmlns="http://www.w3.org/2000/svg">
<path fill-rule="evenodd" clip-rule="evenodd" d="M87.2642 2.86892C87.2642 1.27268 88.5531 6.85504e-08 90.1214 0C91.7112 -6.94909e-08 92.9786 1.29425 92.9786 2.86892C92.9786 4.46515 91.6897 5.73783 90.1214 5.73783C88.5531 5.73783 87.2642 4.46515 87.2642 2.86892ZM93.0001 19.5C93.0001 17.9155 91.7209 16.631 90.1429 16.631C88.5649 16.631 87.2856 17.9155 87.2856 19.5C87.2856 21.0844 88.5649 22.3689 90.1429 22.3689C91.7209 22.3689 93.0001 21.0844 93.0001 19.5ZM2.85724 33.2621C1.28898 33.2621 0 34.5348 0 36.1311C0 37.7057 1.2675 39 2.85724 39C4.44699 39 5.71448 37.7057 5.71448 36.1311C5.71448 34.5564 4.4255 33.2621 2.85724 33.2621ZM17.4443 36.1311C17.4443 34.5348 18.7333 33.2621 20.3016 33.2621C21.8913 33.2621 23.1588 34.5564 23.1588 36.1311C23.1588 37.7057 21.8913 39 20.3231 39C18.7333 39 17.4443 37.7057 17.4443 36.1311ZM37.7674 33.2621C36.1991 33.2621 34.9102 34.5348 34.9102 36.1311C34.9102 37.7057 36.1991 39 37.7674 39C39.3571 39 40.6246 37.7057 40.6246 36.1311C40.6246 34.5564 39.3571 33.2621 37.7674 33.2621ZM52.3755 36.1311C52.3755 34.5348 53.6645 33.2621 55.2327 33.2621C56.8225 33.2621 58.09 34.5564 58.09 36.1311C58.09 37.7057 56.801 39 55.2327 39C53.643 39 52.3755 37.7057 52.3755 36.1311ZM72.6771 33.2621C71.1088 33.2621 69.8198 34.5348 69.8198 36.1311C69.8198 37.7057 71.1088 39 72.6771 39C74.2668 39 75.5343 37.7057 75.5343 36.1311C75.5343 34.5564 74.2668 33.2621 72.6771 33.2621ZM90.1214 33.2621C88.5531 33.2621 87.2642 34.5348 87.2642 36.1311C87.2642 37.7057 88.5531 39 90.1429 39C91.7111 39 92.9786 37.7057 92.9786 36.1311C92.9786 34.5564 91.7112 33.2621 90.1214 33.2621ZM72.6771 16.631C74.2551 16.631 75.5343 17.9155 75.5343 19.5C75.5343 21.0844 74.2551 22.3689 72.6771 22.3689C71.0991 22.3689 69.8198 21.0844 69.8198 19.5C69.8198 17.9155 71.0991 16.631 72.6771 16.631ZM58.09 19.5C58.09 17.9155 56.8107 16.631 55.2327 16.631C53.6547 16.631 52.3755 17.9155 52.3755 19.5C52.3755 21.0844 53.6547 22.3689 55.2327 22.3689C56.8107 22.3689 58.09 21.0844 58.09 19.5ZM37.7674 16.631C39.3454 16.631 40.6246 17.9155 40.6246 19.5C40.6246 21.0844 39.3454 22.3689 37.7674 22.3689C36.1894 22.3689 34.9102 21.0844 34.9102 19.5C34.9102 17.9155 36.1894 16.631 37.7674 16.631ZM23.1803 19.5C23.1803 17.9155 21.9011 16.631 20.3231 16.631C18.7451 16.631 17.4658 17.9155 17.4658 19.5C17.4658 21.0844 18.7451 22.3689 20.3231 22.3689C21.9011 22.3689 23.1803 21.0844 23.1803 19.5ZM2.85724 16.631C4.43525 16.631 5.71448 17.9155 5.71448 19.5C5.71448 21.0844 4.43525 22.3689 2.85724 22.3689C1.27923 22.3689 0 21.0844 0 19.5C0 17.9155 1.27923 16.631 2.85724 16.631ZM72.6771 0C71.1088 6.85504e-08 69.8198 1.27268 69.8198 2.86892C69.8198 4.46515 71.1088 5.73783 72.6771 5.73783C74.2453 5.73783 75.5343 4.46515 75.5343 2.86892C75.5343 1.29425 74.2668 -6.94909e-08 72.6771 0ZM52.3755 2.86892C52.3755 1.27268 53.6645 6.85504e-08 55.2327 0C56.8225 -6.94909e-08 58.09 1.29425 58.09 2.86892C58.09 4.46515 56.801 5.73783 55.2327 5.73783C53.643 5.73783 52.3755 4.46515 52.3755 2.86892ZM37.7674 0C36.1991 6.85504e-08 34.9102 1.27268 34.9102 2.86892C34.9102 4.46515 36.1991 5.73783 37.7674 5.73783C39.3357 5.73783 40.6246 4.46515 40.6246 2.86892C40.6246 1.29425 39.3571 -6.94909e-08 37.7674 0ZM17.4443 2.86892C17.4443 1.27268 18.7333 6.85504e-08 20.3016 0C21.8913 -6.94909e-08 23.1588 1.29425 23.1588 2.86892C23.1588 4.46515 21.8698 5.73783 20.3016 5.73783C18.7333 5.73783 17.4443 4.46515 17.4443 2.86892ZM2.85724 0C1.28898 6.85504e-08 0 1.27268 0 2.86892C0 4.46515 1.28898 5.73783 2.85724 5.73783C4.4255 5.73783 5.71448 4.46515 5.71448 2.86892C5.71448 1.29425 4.4255 -6.85504e-08 2.85724 0Z" fill="#5F9FF5"/>
</svg>
