<svg width="90" height="53" viewBox="0 0 90 53" fill="none" xmlns="http://www.w3.org/2000/svg">
<path fill-rule="evenodd" clip-rule="evenodd" d="M65.2072 1.60797C65.2072 0.719913 64.4849 -3.89482e-08 63.5939 0C62.7028 3.89482e-08 61.9805 0.719913 61.9805 1.60797C61.9805 2.49603 62.7028 3.21594 63.5939 3.21594C64.4849 3.21594 65.2072 2.49603 65.2072 1.60797ZM75.9962 3.3353e-08C75.102 7.24394e-08 74.3828 0.716806 74.3828 1.60797C74.3828 2.49914 75.102 3.21594 75.9962 3.21594C76.8904 3.21594 77.6096 2.49914 77.6096 1.60797C77.6096 0.716806 76.8904 -5.73345e-09 75.9962 3.3353e-08ZM90.0002 1.60798C90.0002 0.719923 89.2779 9.73621e-06 88.3868 9.77516e-06C87.4958 9.81411e-06 86.7734 0.719923 86.7734 1.60798C86.7734 2.49604 87.4958 3.21595 88.3868 3.21595C89.2779 3.21595 90.0002 2.49604 90.0002 1.60798ZM86.7734 13.9682C86.7734 13.077 87.4926 12.3602 88.3868 12.3602C89.281 12.3602 90.0002 13.077 90.0002 13.9682C90.0002 14.8593 89.281 15.5761 88.3868 15.5761C87.4926 15.5761 86.7734 14.8496 86.7734 13.9682ZM90.0002 26.3187C90.0002 25.4306 89.2779 24.7107 88.3868 24.7107C87.4958 24.7107 86.7734 25.4306 86.7734 26.3187C86.7734 27.2067 87.4958 27.9266 88.3868 27.9266C89.2779 27.9266 90.0002 27.2067 90.0002 26.3187ZM75.9962 37.0703C75.102 37.0703 74.3828 37.7871 74.3828 38.6783C74.3828 39.5598 75.102 40.2863 75.9962 40.2863C76.8904 40.2863 77.6096 39.5695 77.6096 38.6783C77.6096 37.7871 76.8904 37.0703 75.9962 37.0703ZM86.7734 38.6785C86.7734 37.7873 87.4926 37.0705 88.3868 37.0705C89.281 37.0705 90.0002 37.7873 90.0002 38.6785C90.0002 39.5696 89.281 40.2864 88.3868 40.2864C87.4926 40.2864 86.7734 39.56 86.7734 38.6785ZM12.3906 51.0289C12.3906 50.1377 13.1098 49.4209 14.004 49.4209C14.8982 49.4209 15.6174 50.1377 15.6174 51.0289C15.6174 51.92 14.8982 52.6368 14.004 52.6368C13.1196 52.6368 12.3906 51.92 12.3906 51.0289ZM26.4064 49.4209C27.2974 49.4209 28.0198 50.1408 28.0198 51.0289C28.0198 51.9169 27.2974 52.6368 26.4064 52.6368C25.5153 52.6368 24.793 51.9169 24.793 51.0289C24.793 50.1408 25.5153 49.4209 26.4064 49.4209ZM40.4104 51.0289C40.4104 50.1408 39.688 49.4209 38.797 49.4209C37.9059 49.4209 37.1836 50.1408 37.1836 51.0289C37.1836 51.9169 37.9059 52.6368 38.797 52.6368C39.688 52.6368 40.4104 51.9169 40.4104 51.0289ZM51.2032 49.4209C50.3091 49.4209 49.5898 50.1377 49.5898 51.0289C49.5898 51.92 50.3091 52.6368 51.2032 52.6368C52.0877 52.6368 52.8069 51.92 52.8166 51.0289C52.8166 50.1377 52.0974 49.4209 51.2032 49.4209ZM65.2072 51.0289C65.2072 50.1408 64.4849 49.4209 63.5939 49.4209C62.7028 49.4209 61.9805 50.1408 61.9805 51.0289C61.9805 51.9169 62.7028 52.6368 63.5939 52.6368C64.4849 52.6368 65.2072 51.9169 65.2072 51.0289ZM75.9962 49.4209C75.102 49.4209 74.3828 50.1377 74.3828 51.0289C74.3828 51.92 75.102 52.6368 75.9962 52.6368C76.8807 52.6368 77.5999 51.92 77.6096 51.0289C77.6096 50.1377 76.8904 49.4209 75.9962 49.4209ZM88.3868 49.421C89.2779 49.421 90.0002 50.1409 90.0002 51.029C90.0002 51.917 89.2779 52.6369 88.3868 52.6369C87.4958 52.6369 86.7734 51.917 86.7734 51.029C86.7734 50.1409 87.4958 49.421 88.3868 49.421ZM1.61339 49.421C2.50444 49.421 3.22678 50.1409 3.22678 51.029C3.22678 51.917 2.50444 52.6369 1.61339 52.6369C0.72234 52.6369 0 51.917 0 51.029C0 50.1409 0.72234 49.421 1.61339 49.421ZM61.9805 38.6783C61.9805 37.7871 62.6997 37.0703 63.5939 37.0703C64.488 37.0703 65.2072 37.7871 65.2072 38.6783C65.2072 39.5695 64.488 40.2863 63.5939 40.2863C62.7094 40.2863 61.9805 39.5598 61.9805 38.6783ZM51.2032 37.0703C50.3091 37.0703 49.5898 37.7871 49.5898 38.6783C49.5898 39.5598 50.3091 40.2863 51.2032 40.2863C52.0974 40.2863 52.8166 39.5695 52.8166 38.6783C52.8166 37.7871 52.0974 37.0703 51.2032 37.0703ZM37.1836 38.6783C37.1836 37.7871 37.9028 37.0703 38.797 37.0703C39.6912 37.0703 40.4104 37.7871 40.4104 38.6783C40.4104 39.5695 39.6912 40.2863 38.797 40.2863C37.9125 40.2863 37.1836 39.5598 37.1836 38.6783ZM26.4064 37.0703C25.5122 37.0703 24.793 37.7871 24.793 38.6783C24.793 39.5598 25.5122 40.2863 26.4064 40.2863C27.3005 40.2863 28.0198 39.5695 28.0198 38.6783C28.0198 37.7871 27.3005 37.0703 26.4064 37.0703ZM12.3906 38.6783C12.3906 37.7871 13.1098 37.0703 14.004 37.0703C14.8982 37.0703 15.6174 37.7871 15.6174 38.6783C15.6174 39.5695 14.8982 40.2863 14.004 40.2863C13.1196 40.2863 12.3906 39.5598 12.3906 38.6783ZM1.61339 37.0705C0.719223 37.0705 0 37.7873 0 38.6785C0 39.56 0.719223 40.2864 1.61339 40.2864C2.50756 40.2864 3.22678 39.5696 3.22678 38.6785C3.22678 37.7873 2.50756 37.0705 1.61339 37.0705ZM75.9962 24.7109C75.102 24.7109 74.3828 25.4277 74.3828 26.3189C74.3828 27.2101 75.102 27.9269 75.9962 27.9269C76.8904 27.9269 77.6096 27.2101 77.6096 26.3189C77.6096 25.4277 76.8904 24.7109 75.9962 24.7109ZM65.2072 26.3189C65.2072 25.4309 64.4849 24.7109 63.5939 24.7109C62.7028 24.7109 61.9805 25.4309 61.9805 26.3189C61.9805 27.207 62.7028 27.9269 63.5939 27.9269C64.4849 27.9269 65.2072 27.207 65.2072 26.3189ZM51.2032 24.7109C50.3091 24.7109 49.5898 25.4277 49.5898 26.3189C49.5898 27.2101 50.3091 27.9269 51.2032 27.9269C52.0974 27.9269 52.8166 27.2101 52.8166 26.3189C52.8166 25.4277 52.0974 24.7109 51.2032 24.7109ZM40.4104 26.3189C40.4104 25.4309 39.688 24.7109 38.797 24.7109C37.9059 24.7109 37.1836 25.4309 37.1836 26.3189C37.1836 27.207 37.9059 27.9269 38.797 27.9269C39.688 27.9269 40.4104 27.207 40.4104 26.3189ZM26.4064 24.7109C27.2974 24.7109 28.0198 25.4309 28.0198 26.3189C28.0198 27.207 27.2974 27.9269 26.4064 27.9269C25.5153 27.9269 24.793 27.207 24.793 26.3189C24.793 25.4309 25.5153 24.7109 26.4064 24.7109ZM12.3906 26.3189C12.3906 25.4277 13.1098 24.7109 14.004 24.7109C14.8982 24.7109 15.6174 25.4277 15.6174 26.3189C15.6174 27.2101 14.8982 27.9269 14.004 27.9269C13.1196 27.9269 12.3906 27.2101 12.3906 26.3189ZM1.61339 24.7107C2.50444 24.7107 3.22678 25.4306 3.22678 26.3187C3.22678 27.2067 2.50444 27.9266 1.61339 27.9266C0.72234 27.9266 0 27.2067 0 26.3187C0 25.4306 0.72234 24.7107 1.61339 24.7107ZM75.9962 12.3603C75.102 12.3603 74.3828 13.0772 74.3828 13.9683C74.3828 14.8498 75.102 15.5763 75.9962 15.5763C76.8904 15.5763 77.6096 14.8595 77.6096 13.9683C77.6096 13.0772 76.8904 12.3603 75.9962 12.3603ZM61.9805 13.9683C61.9805 13.0772 62.6997 12.3603 63.5939 12.3603C64.488 12.3603 65.2072 13.0772 65.2072 13.9683C65.2072 14.8595 64.488 15.5763 63.5939 15.5763C62.7094 15.5763 61.9805 14.8498 61.9805 13.9683ZM51.2032 12.3603C50.3091 12.3603 49.5898 13.0772 49.5898 13.9683C49.5898 14.8498 50.3091 15.5763 51.2032 15.5763C52.0974 15.5763 52.8166 14.8595 52.8166 13.9683C52.8166 13.0772 52.0974 12.3603 51.2032 12.3603ZM37.1836 13.9683C37.1836 13.0772 37.9028 12.3603 38.797 12.3603C39.6912 12.3603 40.4104 13.0772 40.4104 13.9683C40.4104 14.8595 39.6912 15.5763 38.797 15.5763C37.9125 15.5763 37.1836 14.8498 37.1836 13.9683ZM26.4064 12.3603C25.5122 12.3603 24.793 13.0772 24.793 13.9683C24.793 14.8498 25.5122 15.5763 26.4064 15.5763C27.3005 15.5763 28.0198 14.8595 28.0198 13.9683C28.0198 13.0772 27.3005 12.3603 26.4064 12.3603ZM12.3906 13.9683C12.3906 13.0772 13.1098 12.3603 14.004 12.3603C14.8982 12.3603 15.6174 13.0772 15.6174 13.9683C15.6174 14.8595 14.8982 15.5763 14.004 15.5763C13.1196 15.5763 12.3906 14.8498 12.3906 13.9683ZM1.61339 12.3602C0.719223 12.3602 0 13.077 0 13.9682C0 14.8496 0.719223 15.5761 1.61339 15.5761C2.50756 15.5761 3.22678 14.8593 3.22678 13.9682C3.22678 13.077 2.50756 12.3602 1.61339 12.3602ZM51.2032 3.3353e-08C50.3091 7.24394e-08 49.5898 0.716806 49.5898 1.60797C49.5898 2.49914 50.3091 3.21594 51.2032 3.21594C52.0974 3.21594 52.8166 2.49914 52.8166 1.60797C52.8166 0.716806 52.0974 -5.73345e-09 51.2032 3.3353e-08ZM40.4104 1.60797C40.4104 0.719913 39.688 -3.89482e-08 38.797 0C37.9059 3.89482e-08 37.1836 0.719913 37.1836 1.60797C37.1836 2.49603 37.9059 3.21594 38.797 3.21594C39.688 3.21594 40.4104 2.49603 40.4104 1.60797ZM26.4064 0C27.2974 -3.89482e-08 28.0198 0.719913 28.0198 1.60797C28.0198 2.49603 27.2974 3.21594 26.4064 3.21594C25.5153 3.21594 24.793 2.49603 24.793 1.60797C24.793 0.719913 25.5153 3.89482e-08 26.4064 0ZM12.3906 1.60797C12.3906 0.716806 13.1098 7.24394e-08 14.004 3.3353e-08C14.8982 -5.73345e-09 15.6174 0.716806 15.6174 1.60797C15.6174 2.49914 14.8982 3.21594 14.004 3.21594C13.1196 3.21594 12.3906 2.49914 12.3906 1.60797ZM1.61339 9.77516e-06C2.50444 9.73621e-06 3.22678 0.719923 3.22678 1.60798C3.22678 2.49604 2.50444 3.21595 1.61339 3.21595C0.72234 3.21595 0 2.49604 0 1.60798C0 0.719923 0.72234 9.81411e-06 1.61339 9.77516e-06Z" fill="#5B75FB"/>
</svg>
