<svg width="70" height="29" viewBox="0 0 70 29" fill="none" xmlns="http://www.w3.org/2000/svg">
<path fill-rule="evenodd" clip-rule="evenodd" d="M38.9455 2.1333C38.9455 0.946349 39.904 5.09735e-08 41.0701 0C42.2522 -5.1672e-08 43.1947 0.962389 43.1947 2.1333C43.1947 3.32024 42.2363 4.26659 41.0701 4.26659C39.888 4.26659 38.9455 3.32024 38.9455 2.1333ZM64.8867 2.13333C64.8867 0.946387 65.8452 3.77211e-05 67.0113 3.76701e-05C68.1935 3.76185e-05 69.1359 0.962427 69.1359 2.13333C69.1359 3.32028 68.1775 4.26663 67.0113 4.26663C65.8452 4.26663 64.8867 3.32028 64.8867 2.13333ZM69.1555 14.5C69.1555 13.3218 68.2043 12.3667 67.0309 12.3667C65.8575 12.3667 64.9062 13.3218 64.9062 14.5C64.9062 15.6782 65.8575 16.6333 67.0309 16.6333C68.2043 16.6333 69.1555 15.6782 69.1555 14.5ZM2.12462 24.7334C0.958473 24.7334 0 25.6798 0 26.8667C0 28.0376 0.942499 29 2.12462 29C3.30673 29 4.24923 28.0376 4.24923 26.8667C4.24923 25.6958 3.29076 24.7334 2.12462 24.7334ZM12.9727 26.8667C12.9727 25.6798 13.9311 24.7334 15.0973 24.7334C16.2794 24.7334 17.2219 25.6958 17.2219 26.8667C17.2219 28.0376 16.2794 29 15.1132 29C13.9311 29 12.9727 28.0376 12.9727 26.8667ZM28.0816 24.7334C26.9155 24.7334 25.957 25.6798 25.957 26.8667C25.957 28.0376 26.9155 29 28.0816 29C29.2638 29 30.2063 28.0376 30.2063 26.8667C30.2063 25.6958 29.2638 24.7334 28.0816 24.7334ZM38.9455 26.8667C38.9455 25.6798 39.904 24.7334 41.0701 24.7334C42.2522 24.7334 43.1947 25.6958 43.1947 26.8667C43.1947 28.0376 42.2363 29 41.0701 29C39.888 29 38.9455 28.0376 38.9455 26.8667ZM54.0426 24.7334C52.8764 24.7334 51.918 25.6798 51.918 26.8667C51.918 28.0376 52.8764 29 54.0426 29C55.2247 29 56.1672 28.0376 56.1672 26.8667C56.1672 25.6958 55.2247 24.7334 54.0426 24.7334ZM67.0113 24.7334C65.8452 24.7334 64.8867 25.6798 64.8867 26.8667C64.8867 28.0376 65.8452 29 67.0273 29C68.1935 29 69.1359 28.0376 69.1359 26.8667C69.1359 25.6958 68.1935 24.7334 67.0113 24.7334ZM54.0426 12.3667C55.216 12.3667 56.1672 13.3218 56.1672 14.5C56.1672 15.6782 55.216 16.6333 54.0426 16.6333C52.8692 16.6333 51.918 15.6782 51.918 14.5C51.918 13.3218 52.8692 12.3667 54.0426 12.3667ZM43.1947 14.5002C43.1947 13.322 42.2435 12.3669 41.0701 12.3669C39.8967 12.3669 38.9455 13.322 38.9455 14.5002C38.9455 15.6784 39.8967 16.6335 41.0701 16.6335C42.2435 16.6335 43.1947 15.6784 43.1947 14.5002ZM28.0816 12.3667C29.255 12.3667 30.2063 13.3218 30.2063 14.5C30.2063 15.6782 29.255 16.6333 28.0816 16.6333C26.9083 16.6333 25.957 15.6782 25.957 14.5C25.957 13.3218 26.9083 12.3667 28.0816 12.3667ZM17.2375 14.5C17.2375 13.3218 16.2863 12.3667 15.1129 12.3667C13.9395 12.3667 12.9883 13.3218 12.9883 14.5C12.9883 15.6782 13.9395 16.6333 15.1129 16.6333C16.2863 16.6333 17.2375 15.6782 17.2375 14.5ZM2.12462 12.3669C3.29801 12.3669 4.24923 13.322 4.24923 14.5002C4.24923 15.6784 3.29801 16.6335 2.12462 16.6335C0.951223 16.6335 0 15.6784 0 14.5002C0 13.322 0.951223 12.3669 2.12462 12.3669ZM54.0426 3.76701e-05C52.8764 3.77211e-05 51.918 0.946387 51.918 2.13333C51.918 3.32028 52.8764 4.26663 54.0426 4.26663C55.2087 4.26663 56.1672 3.32028 56.1672 2.13333C56.1672 0.962427 55.2247 3.76185e-05 54.0426 3.76701e-05ZM28.0816 3.76701e-05C26.9155 3.77211e-05 25.957 0.946387 25.957 2.13333C25.957 3.32028 26.9155 4.26663 28.0816 4.26663C29.2478 4.26663 30.2063 3.32028 30.2063 2.13333C30.2063 0.962427 29.2638 3.76185e-05 28.0816 3.76701e-05ZM12.9727 2.13333C12.9727 0.946387 13.9311 3.77211e-05 15.0973 3.76701e-05C16.2794 3.76185e-05 17.2219 0.962427 17.2219 2.13333C17.2219 3.32028 16.2634 4.26663 15.0973 4.26663C13.9311 4.26663 12.9727 3.32028 12.9727 2.13333ZM2.12462 0C0.958473 5.09735e-08 0 0.946349 0 2.1333C0 3.32024 0.958473 4.26659 2.12462 4.26659C3.29076 4.26659 4.24923 3.32024 4.24923 2.1333C4.24923 0.962389 3.29076 -5.09735e-08 2.12462 0Z" fill="#EAB454"/>
</svg>
