<svg width="30" height="31" viewBox="0 0 30 31" fill="none" xmlns="http://www.w3.org/2000/svg">
<path fill-rule="evenodd" clip-rule="evenodd" d="M19.0219 2.53406C18.2492 1.29224 16.3683 0.420299 14.8197 0.922822C12.7551 1.59399 12.4225 4.89198 12.7133 6.40316C13.4811 10.3977 18.6684 11.349 20.2233 7.27304C20.7778 5.82126 19.7902 3.76828 19.0219 2.53406ZM29.1323 7.56331C28.7761 6.2901 27.3651 5.05561 25.8927 5.09974C23.9314 5.15747 22.8061 7.93615 22.6754 9.32315C22.3303 12.9857 26.5903 15.125 28.9736 11.9812C29.8233 10.8608 29.4856 8.82932 29.1323 7.56331ZM12.5671 15.7155C13.4483 14.2436 14.7846 13.3403 16.5587 13.1296C17.9514 12.963 19.1799 13.4574 20.4113 13.953C20.6901 14.0652 20.9691 14.1775 21.2502 14.2822C22.0481 14.5791 22.8385 14.717 23.6251 14.8543C24.4201 14.993 25.2111 15.131 26.0019 15.4317C30.7618 17.2406 30.9845 23.4494 26.2238 25.4516C25.1618 25.8983 24.0717 25.9156 22.9895 25.9327C21.9385 25.9494 20.8948 25.966 19.8913 26.3755C18.9004 26.7804 18.1465 27.5153 17.3948 28.2481C16.6366 28.9871 15.8807 29.724 14.886 30.1182C9.89032 32.0977 5.9886 25.2212 9.75311 21.522C10.4138 20.8731 10.8943 20.0635 11.2546 19.2104C11.4141 18.8349 11.5619 18.3694 11.7156 17.8851L11.7156 17.8851C11.9604 17.1138 12.2204 16.2948 12.5671 15.7155ZM1.49959 15.7401C2.61397 14.7774 4.48843 14.8458 5.56775 15.609C6.63997 16.3687 8.18316 17.7335 8.23107 19.1378C8.36392 23.0795 3.70693 24.1068 1.66669 21.0471C0.892569 19.8885 0.0135153 17.0226 1.49959 15.7401ZM5.51882 5.1888C6.91498 4.34978 8.94377 4.7777 9.97598 5.81269C11.0019 6.84116 12.4259 8.62063 12.2129 10.1591C11.6158 14.4804 6.3486 14.7209 4.70006 11.0029C4.0747 9.59489 3.65754 6.3065 5.51882 5.1888Z" fill="#A385F6"/>
</svg>
