<svg width="28" height="27" viewBox="0 0 28 27" fill="none" xmlns="http://www.w3.org/2000/svg">
<path fill-rule="evenodd" clip-rule="evenodd" d="M25.2164 9.00497C25.7518 7.81413 25.4613 5.98637 24.3179 5.08915C22.7927 3.89359 20.1835 5.28924 19.2086 6.25713C16.6312 8.81492 18.5091 13.132 22.3033 12.2547C23.6551 11.9427 24.6845 10.1888 25.2164 9.00497ZM26.5239 19C27.2899 18.1021 27.5021 16.442 26.7363 15.3731C25.717 13.9486 23.0978 14.4983 22.0051 15.0921C19.1196 16.66 19.6555 20.8815 23.1715 21.0821C24.4247 21.1539 25.7618 19.8921 26.5239 19ZM12.2359 10.7853C13.7653 10.7054 15.0999 11.2457 16.1393 12.4553C16.9562 13.4043 17.2015 14.5607 17.4474 15.7198C17.5031 15.9823 17.5588 16.2449 17.6212 16.5053C17.7985 17.2443 18.0899 17.8987 18.3798 18.5498C18.6729 19.2079 18.9644 19.8627 19.1354 20.5984C20.1651 25.0258 15.6756 28.2822 11.8217 25.7517C10.962 25.1872 10.4065 24.3881 9.8549 23.5948L9.85489 23.5948C9.31924 22.8244 8.78733 22.0593 7.98426 21.5197C7.19089 20.9871 6.27104 20.7944 5.35379 20.6023C4.42876 20.4085 3.50636 20.2153 2.71901 19.6746C-1.23495 16.9587 1.91742 10.644 6.53262 11.5914C7.34235 11.7579 8.18145 11.7108 8.99292 11.553C9.3506 11.4842 9.76906 11.3619 10.2044 11.2347C10.8978 11.032 11.6341 10.8169 12.2359 10.7853ZM6.70723 2.59722C7.9754 2.94356 8.85799 4.36649 8.8299 5.54619C8.80088 6.7189 8.55806 8.54179 7.54141 9.27649C4.68702 11.3375 1.60709 8.39849 2.85829 5.36339C3.33134 4.21293 5.01707 2.1347 6.70723 2.59722ZM16.5261 0.321702C17.8429 0.938419 18.536 2.65469 18.2831 3.9348C18.0318 5.20702 17.4224 7.14812 16.1764 7.75631C12.6773 9.46546 9.87663 5.68252 11.8106 2.60988C12.5425 1.44549 14.7712 -0.500887 16.5261 0.321702Z" fill="#FC69FF"/>
</svg>
