<svg width="97" height="57" viewBox="0 0 97 57" fill="none" xmlns="http://www.w3.org/2000/svg">
<path fill-rule="evenodd" clip-rule="evenodd" d="M96.5488 1.7111C96.5488 0.766085 95.7801 0 94.8319 0C93.8837 0 93.1151 0.766085 93.1151 1.7111C93.1151 2.65611 93.8837 3.4222 94.8319 3.4222C95.7801 3.4222 96.5488 2.65611 96.5488 1.7111ZM93.1151 14.8639C93.1151 13.9156 93.8804 13.1528 94.8319 13.1528C95.7835 13.1528 96.5488 13.9156 96.5488 14.8639C96.5488 15.8122 95.7835 16.575 94.8319 16.575C93.8804 16.575 93.1151 15.8019 93.1151 14.8639ZM96.5488 28.0063C96.5488 27.0613 95.7801 26.2952 94.8319 26.2952C93.8837 26.2952 93.1151 27.0613 93.1151 28.0063C93.1151 28.9513 93.8837 29.7174 94.8319 29.7174C95.7801 29.7174 96.5488 28.9513 96.5488 28.0063ZM93.1151 41.1591C93.1151 40.2108 93.8804 39.448 94.8319 39.448C95.7835 39.448 96.5488 40.2108 96.5488 41.1591C96.5488 42.1074 95.7835 42.8702 94.8319 42.8702C93.8804 42.8702 93.1151 42.0971 93.1151 41.1591ZM2.49299 52.5905C3.44119 52.5905 4.20986 53.3566 4.20986 54.3016C4.20986 55.2466 3.44119 56.0127 2.49299 56.0127C1.54479 56.0127 0.776123 55.2466 0.776123 54.3016C0.776123 53.3566 1.54479 52.5905 2.49299 52.5905ZM13.9631 54.3016C13.9631 53.3532 14.7284 52.5905 15.6799 52.5905C16.6314 52.5905 17.3968 53.3532 17.3968 54.3016C17.3968 55.2499 16.6314 56.0127 15.6799 56.0127C14.7387 56.0127 13.9631 55.2499 13.9631 54.3016ZM28.8772 52.5905C29.8254 52.5905 30.5941 53.3566 30.5941 54.3016C30.5941 55.2466 29.8254 56.0127 28.8772 56.0127C27.929 56.0127 27.1604 55.2466 27.1604 54.3016C27.1604 53.3566 27.929 52.5905 28.8772 52.5905ZM43.781 54.3016C43.781 53.3566 43.0124 52.5905 42.0642 52.5905C41.116 52.5905 40.3473 53.3566 40.3473 54.3016C40.3473 55.2466 41.116 56.0127 42.0642 56.0127C43.0124 56.0127 43.781 55.2466 43.781 54.3016ZM55.2608 52.5905C54.3093 52.5905 53.5439 53.3532 53.5439 54.3016C53.5439 55.2499 54.3093 56.0127 55.2608 56.0127C56.202 56.0127 56.9673 55.2499 56.9776 54.3016C56.9776 53.3532 56.2123 52.5905 55.2608 52.5905ZM70.1646 54.3016C70.1646 53.3566 69.3959 52.5905 68.4477 52.5905C67.4995 52.5905 66.7308 53.3566 66.7308 54.3016C66.7308 55.2466 67.4995 56.0127 68.4477 56.0127C69.3959 56.0127 70.1646 55.2466 70.1646 54.3016ZM81.645 52.5905C80.6935 52.5905 79.9281 53.3532 79.9281 54.3016C79.9281 55.2499 80.6935 56.0127 81.645 56.0127C82.5862 56.0127 83.3515 55.2499 83.3619 54.3016C83.3619 53.3532 82.5965 52.5905 81.645 52.5905ZM94.8319 52.5905C95.7801 52.5905 96.5488 53.3566 96.5488 54.3016C96.5488 55.2466 95.7801 56.0127 94.8319 56.0127C93.8837 56.0127 93.1151 55.2466 93.1151 54.3016C93.1151 53.3566 93.8837 52.5905 94.8319 52.5905ZM81.645 39.448C80.6935 39.448 79.9281 40.2108 79.9281 41.1591C79.9281 42.0971 80.6935 42.8702 81.645 42.8702C82.5965 42.8702 83.3619 42.1074 83.3619 41.1591C83.3619 40.2108 82.5965 39.448 81.645 39.448ZM66.7308 41.1591C66.7308 40.2108 67.4962 39.448 68.4477 39.448C69.3992 39.448 70.1646 40.2108 70.1646 41.1591C70.1646 42.1074 69.3992 42.8702 68.4477 42.8702C67.5065 42.8702 66.7308 42.0971 66.7308 41.1591ZM55.2608 39.448C54.3093 39.448 53.5439 40.2108 53.5439 41.1591C53.5439 42.0971 54.3093 42.8702 55.2608 42.8702C56.2123 42.8702 56.9776 42.1074 56.9776 41.1591C56.9776 40.2108 56.2123 39.448 55.2608 39.448ZM40.3473 41.1591C40.3473 40.2108 41.1126 39.448 42.0642 39.448C43.0157 39.448 43.781 40.2108 43.781 41.1591C43.781 42.1074 43.0157 42.8702 42.0642 42.8702C41.123 42.8702 40.3473 42.0971 40.3473 41.1591ZM28.8772 39.448C27.9257 39.448 27.1604 40.2108 27.1604 41.1591C27.1604 42.0971 27.9257 42.8702 28.8772 42.8702C29.8287 42.8702 30.5941 42.1074 30.5941 41.1591C30.5941 40.2108 29.8287 39.448 28.8772 39.448ZM13.9631 41.1591C13.9631 40.2108 14.7284 39.448 15.6799 39.448C16.6314 39.448 17.3968 40.2108 17.3968 41.1591C17.3968 42.1074 16.6314 42.8702 15.6799 42.8702C14.7387 42.8702 13.9631 42.0971 13.9631 41.1591ZM2.49299 39.448C1.54147 39.448 0.776123 40.2108 0.776123 41.1591C0.776123 42.0971 1.54147 42.8702 2.49299 42.8702C3.44451 42.8702 4.20986 42.1074 4.20986 41.1591C4.20986 40.2108 3.44451 39.448 2.49299 39.448ZM81.645 26.2952C80.6935 26.2952 79.9281 27.058 79.9281 28.0063C79.9281 28.9547 80.6935 29.7174 81.645 29.7174C82.5965 29.7174 83.3619 28.9547 83.3619 28.0063C83.3619 27.058 82.5965 26.2952 81.645 26.2952ZM70.1646 28.0063C70.1646 27.0613 69.3959 26.2952 68.4477 26.2952C67.4995 26.2952 66.7308 27.0613 66.7308 28.0063C66.7308 28.9513 67.4995 29.7174 68.4477 29.7174C69.3959 29.7174 70.1646 28.9513 70.1646 28.0063ZM55.2608 26.2952C54.3093 26.2952 53.5439 27.058 53.5439 28.0063C53.5439 28.9547 54.3093 29.7174 55.2608 29.7174C56.2123 29.7174 56.9776 28.9547 56.9776 28.0063C56.9776 27.058 56.2123 26.2952 55.2608 26.2952ZM43.781 28.0063C43.781 27.0613 43.0124 26.2952 42.0642 26.2952C41.116 26.2952 40.3473 27.0613 40.3473 28.0063C40.3473 28.9513 41.116 29.7174 42.0642 29.7174C43.0124 29.7174 43.781 28.9513 43.781 28.0063ZM28.8772 26.2952C29.8254 26.2952 30.5941 27.0613 30.5941 28.0063C30.5941 28.9513 29.8254 29.7174 28.8772 29.7174C27.929 29.7174 27.1604 28.9513 27.1604 28.0063C27.1604 27.0613 27.929 26.2952 28.8772 26.2952ZM13.9631 28.0063C13.9631 27.058 14.7284 26.2952 15.6799 26.2952C16.6314 26.2952 17.3968 27.058 17.3968 28.0063C17.3968 28.9547 16.6314 29.7174 15.6799 29.7174C14.7387 29.7174 13.9631 28.9547 13.9631 28.0063ZM2.49299 26.2952C3.44119 26.2952 4.20986 27.0613 4.20986 28.0063C4.20986 28.9513 3.44119 29.7174 2.49299 29.7174C1.54479 29.7174 0.776123 28.9513 0.776123 28.0063C0.776123 27.0613 1.54479 26.2952 2.49299 26.2952ZM81.645 13.1528C80.6935 13.1528 79.9281 13.9156 79.9281 14.8639C79.9281 15.8019 80.6935 16.575 81.645 16.575C82.5965 16.575 83.3619 15.8122 83.3619 14.8639C83.3619 13.9156 82.5965 13.1528 81.645 13.1528ZM66.7308 14.8639C66.7308 13.9156 67.4962 13.1528 68.4477 13.1528C69.3992 13.1528 70.1646 13.9156 70.1646 14.8639C70.1646 15.8122 69.3992 16.575 68.4477 16.575C67.5065 16.575 66.7308 15.8019 66.7308 14.8639ZM55.2608 13.1528C54.3093 13.1528 53.5439 13.9156 53.5439 14.8639C53.5439 15.8019 54.3093 16.575 55.2608 16.575C56.2123 16.575 56.9776 15.8122 56.9776 14.8639C56.9776 13.9156 56.2123 13.1528 55.2608 13.1528ZM40.3473 14.8639C40.3473 13.9156 41.1126 13.1528 42.0642 13.1528C43.0157 13.1528 43.781 13.9156 43.781 14.8639C43.781 15.8122 43.0157 16.575 42.0642 16.575C41.123 16.575 40.3473 15.8019 40.3473 14.8639ZM28.8772 13.1528C27.9257 13.1528 27.1604 13.9156 27.1604 14.8639C27.1604 15.8019 27.9257 16.575 28.8772 16.575C29.8287 16.575 30.5941 15.8122 30.5941 14.8639C30.5941 13.9156 29.8287 13.1528 28.8772 13.1528ZM13.9631 14.8639C13.9631 13.9156 14.7284 13.1528 15.6799 13.1528C16.6314 13.1528 17.3968 13.9156 17.3968 14.8639C17.3968 15.8122 16.6314 16.575 15.6799 16.575C14.7387 16.575 13.9631 15.8019 13.9631 14.8639ZM2.49299 13.1528C1.54147 13.1528 0.776123 13.9156 0.776123 14.8639C0.776123 15.8019 1.54147 16.575 2.49299 16.575C3.44451 16.575 4.20986 15.8122 4.20986 14.8639C4.20986 13.9156 3.44451 13.1528 2.49299 13.1528ZM81.645 0C80.6935 0 79.9281 0.762779 79.9281 1.7111C79.9281 2.65942 80.6935 3.4222 81.645 3.4222C82.5965 3.4222 83.3619 2.65942 83.3619 1.7111C83.3619 0.762779 82.5965 0 81.645 0ZM70.1646 1.7111C70.1646 0.766085 69.3959 0 68.4477 0C67.4995 0 66.7308 0.766085 66.7308 1.7111C66.7308 2.65611 67.4995 3.4222 68.4477 3.4222C69.3959 3.4222 70.1646 2.65611 70.1646 1.7111ZM55.2608 0C54.3093 0 53.5439 0.762779 53.5439 1.7111C53.5439 2.65942 54.3093 3.4222 55.2608 3.4222C56.2123 3.4222 56.9776 2.65942 56.9776 1.7111C56.9776 0.762779 56.2123 0 55.2608 0ZM43.781 1.7111C43.781 0.766085 43.0124 0 42.0642 0C41.116 0 40.3473 0.766085 40.3473 1.7111C40.3473 2.65611 41.116 3.4222 42.0642 3.4222C43.0124 3.4222 43.781 2.65611 43.781 1.7111ZM28.8772 0C29.8254 0 30.5941 0.766085 30.5941 1.7111C30.5941 2.65611 29.8254 3.4222 28.8772 3.4222C27.929 3.4222 27.1604 2.65611 27.1604 1.7111C27.1604 0.766085 27.929 0 28.8772 0ZM13.9631 1.7111C13.9631 0.762779 14.7284 0 15.6799 0C16.6314 0 17.3968 0.762779 17.3968 1.7111C17.3968 2.65942 16.6314 3.4222 15.6799 3.4222C14.7387 3.4222 13.9631 2.65942 13.9631 1.7111ZM2.49299 0C3.44119 0 4.20986 0.766085 4.20986 1.7111C4.20986 2.65611 3.44119 3.4222 2.49299 3.4222C1.54479 3.4222 0.776123 2.65611 0.776123 1.7111C0.776123 0.766085 1.54479 0 2.49299 0Z" fill="#E9B42E"/>
</svg>
