<svg width="27" height="28" viewBox="0 0 27 28" fill="none" xmlns="http://www.w3.org/2000/svg">
<path fill-rule="evenodd" clip-rule="evenodd" d="M16.4652 1.64636C15.7114 0.558081 13.9723 -0.146531 12.5946 0.37664C10.758 1.07522 10.604 4.07151 10.9341 5.42473C11.8059 9.00178 16.5377 9.63107 17.7621 5.87713C18.1989 4.54001 17.2147 2.72797 16.4652 1.64636ZM25.8293 5.74331C25.4507 4.60812 24.1202 3.55485 22.7911 3.66022C21.0206 3.79965 20.1268 6.36171 20.0704 7.62142C19.9213 10.9479 23.8676 12.6924 25.8824 9.74432C26.6007 8.69364 26.205 6.87211 25.8293 5.74331ZM11.2149 13.8501C11.9461 12.4802 13.114 11.6042 14.7084 11.3348C15.9601 11.1223 17.0927 11.5146 18.2279 11.9079C18.485 11.9969 18.7422 12.086 19.001 12.1682C19.7355 12.4011 20.4562 12.4906 21.1734 12.5797L21.1734 12.5797L21.1734 12.5797L21.1735 12.5797C21.8983 12.6697 22.6195 12.7593 23.3478 12.996C27.7314 14.4196 28.2088 20.0227 23.994 22.0445C23.0538 22.4955 22.0691 22.5596 21.0915 22.6233C20.1421 22.6851 19.1993 22.7465 18.3104 23.1614C17.4326 23.5715 16.7837 24.2694 16.1367 24.9653C15.4842 25.6671 14.8335 26.3669 13.9518 26.7675C9.52358 28.7792 5.69048 22.7361 8.92921 19.2245C9.49766 18.6085 9.896 17.8552 10.1838 17.068C10.3113 16.7214 10.4241 16.2941 10.5416 15.8495L10.5416 15.8494L10.5416 15.8494L10.5416 15.8493C10.7286 15.1411 10.9272 14.3892 11.2149 13.8501ZM1.21082 14.3644C2.17544 13.4445 3.87306 13.423 4.88275 14.065C5.88586 14.7041 7.34165 15.8692 7.44742 17.1366C7.74282 20.6941 3.57843 21.83 1.59791 19.1547C0.846549 18.1417 -0.0756002 15.5899 1.21082 14.3644ZM4.37341 4.64688C5.59827 3.82629 7.4514 4.12292 8.43058 5.01267C9.40379 5.89682 10.7703 7.44219 10.6462 8.84249C10.2985 12.7757 5.54748 13.2273 3.89179 9.93944C3.26383 8.69437 2.74045 5.7401 4.37341 4.64688Z" fill="#E07A5F"/>
</svg>
