<svg width="32" height="33" viewBox="0 0 32 33" fill="none" xmlns="http://www.w3.org/2000/svg">
<path fill-rule="evenodd" clip-rule="evenodd" d="M28.6203 9.82343C29.1542 8.34175 28.6361 6.17032 27.1781 5.19683C25.2332 3.8998 22.224 5.81935 21.1409 7.07348C18.2773 10.3878 20.9346 15.4065 25.4169 14.0009C27.0138 13.5009 28.0899 11.2963 28.6203 9.82343ZM31.1142 21.7237C31.9526 20.5731 32.0544 18.5569 31.0346 17.3419C29.6771 15.7229 26.5779 16.6259 25.3185 17.441C21.9928 19.5933 23.0273 24.621 27.2745 24.5375C28.7884 24.508 30.28 22.867 31.1142 21.7237ZM13.1717 13.1634C15.0037 12.9261 16.6587 13.4527 18.0206 14.8114C19.0907 15.8774 19.4926 17.2455 19.8954 18.6169C19.9866 18.9274 20.0778 19.2381 20.1769 19.5455C20.4584 20.418 20.8693 21.178 21.2782 21.9344L21.2782 21.9344L21.2782 21.9344L21.2782 21.9344L21.2782 21.9344C21.6914 22.6988 22.1026 23.4594 22.3761 24.3284C24.0234 29.5582 18.9247 33.8893 14.0559 31.2018C12.9698 30.6023 12.2278 29.6926 11.4911 28.7894C10.7757 27.9122 10.0654 27.0413 9.04966 26.4665C8.04629 25.8992 6.92218 25.7524 5.80124 25.606C4.67081 25.4584 3.5436 25.3112 2.54669 24.7336C-2.4596 21.8323 0.748545 13.9465 6.38678 14.6597C7.37602 14.7851 8.38085 14.6509 9.34224 14.3863C9.76608 14.2705 10.2581 14.0847 10.7699 13.8915L10.7699 13.8915C11.5852 13.5837 12.4508 13.2569 13.1717 13.1634ZM5.76555 3.82617C7.32278 4.12559 8.5157 5.75543 8.59087 7.17686C8.66427 8.58996 8.5406 10.8048 7.38573 11.7823C4.14309 14.5247 0.167393 11.2744 1.3919 7.50854C1.85457 6.08119 3.69006 3.426 5.76555 3.82617ZM17.3653 0.182695C19.006 0.802802 19.9981 2.80295 19.8121 4.36591C19.6275 5.91922 19.0738 8.31008 17.6314 9.15663C13.5809 11.5354 9.86307 7.24433 11.9053 3.37024C12.6779 1.90221 15.1787 -0.644556 17.3653 0.182695Z" fill="#35B6DE"/>
</svg>
