<svg width="49" height="91" viewBox="0 0 49 91" fill="none" xmlns="http://www.w3.org/2000/svg">
<path fill-rule="evenodd" clip-rule="evenodd" d="M3.23891 1.62491C3.23891 2.52233 2.51385 3.24983 1.61945 3.24983C0.725054 3.24983 0 2.52233 0 1.62491C0 0.727499 0.725054 0 1.61945 0C2.51385 0 3.23891 0.727499 3.23891 1.62491ZM1.61945 12.4803C2.51698 12.4803 3.23891 13.2047 3.23891 14.1052C3.23891 15.0058 2.51698 15.7302 1.61945 15.7302C0.721925 15.7302 0 15.0058 0 14.1052C0 13.2145 0.721925 12.4803 1.61945 12.4803ZM3.23891 26.5957C3.23891 27.4931 2.51385 28.2206 1.61945 28.2206C0.725054 28.2206 0 27.4931 0 26.5957C0 25.6983 0.725054 24.9708 1.61945 24.9708C2.51385 24.9708 3.23891 25.6983 3.23891 26.5957ZM1.61945 40.7013C2.51385 40.7013 3.23891 39.9738 3.23891 39.0764C3.23891 38.179 2.51385 37.4515 1.61945 37.4515C0.725054 37.4515 0 38.179 0 39.0764C0 39.9738 0.725054 40.7013 1.61945 40.7013ZM3.23891 51.5665C3.23891 50.6659 2.51698 49.9416 1.61945 49.9416C0.721925 49.9416 0 50.6659 0 51.5665C0 52.4573 0.721925 53.1816 1.61945 53.1914C2.51698 53.1914 3.23891 52.4671 3.23891 51.5665ZM1.61945 65.6717C2.51385 65.6717 3.23891 64.9443 3.23891 64.0468C3.23891 63.1494 2.51385 62.4219 1.61945 62.4219C0.725054 62.4219 0 63.1494 0 64.0468C0 64.9443 0.725054 65.6717 1.61945 65.6717ZM3.23891 76.5373C3.23891 75.6367 2.51698 74.9124 1.61945 74.9124C0.721925 74.9124 0 75.6367 0 76.5373C0 77.4281 0.721925 78.1524 1.61945 78.1622C2.51698 78.1622 3.23891 77.4379 3.23891 76.5373ZM3.23891 89.018C3.23891 89.9154 2.51385 90.6429 1.61945 90.6429C0.725054 90.6429 0 89.9154 0 89.018C0 88.1206 0.725054 87.3931 1.61945 87.3931C2.51385 87.3931 3.23891 88.1206 3.23891 89.018ZM14.057 87.3931C14.9545 87.3931 15.6764 88.1174 15.6764 89.018C15.6764 89.9185 14.9545 90.6429 14.057 90.6429C13.1594 90.6429 12.4375 89.9185 12.4375 89.018C12.4375 88.1174 13.1692 87.3931 14.057 87.3931ZM15.6764 76.5375C15.6764 75.637 14.9545 74.9126 14.057 74.9126C13.1692 74.9126 12.4375 75.637 12.4375 76.5375C12.4375 77.4381 13.1594 78.1624 14.057 78.1624C14.9545 78.1624 15.6764 77.4381 15.6764 76.5375ZM14.057 62.4219C14.9545 62.4219 15.6764 63.1462 15.6764 64.0468C15.6764 64.9473 14.9545 65.6717 14.057 65.6717C13.1594 65.6717 12.4375 64.9473 12.4375 64.0468C12.4375 63.156 13.1692 62.4219 14.057 62.4219ZM15.6764 51.5663C15.6764 50.6658 14.9545 49.9414 14.057 49.9414C13.1692 49.9414 12.4375 50.6658 12.4375 51.5663C12.4375 52.4669 13.1594 53.1912 14.057 53.1912C14.9545 53.1912 15.6764 52.4669 15.6764 51.5663ZM14.057 37.4517C14.9545 37.4517 15.6764 38.176 15.6764 39.0766C15.6764 39.9771 14.9545 40.7015 14.057 40.7015C13.1594 40.7015 12.4375 39.9771 12.4375 39.0766C12.4375 38.1858 13.1692 37.4517 14.057 37.4517ZM15.6764 26.5956C15.6764 25.6951 14.9545 24.9707 14.057 24.9707C13.1692 24.9707 12.4375 25.6951 12.4375 26.5956C12.4375 27.4962 13.1594 28.2205 14.057 28.2205C14.9545 28.2205 15.6764 27.4962 15.6764 26.5956ZM14.057 12.4805C14.9545 12.4805 15.6764 13.2048 15.6764 14.1054C15.6764 15.0059 14.9545 15.7303 14.057 15.7303C13.1594 15.7303 12.4375 15.0059 12.4375 14.1054C12.4375 13.2146 13.1692 12.4805 14.057 12.4805ZM15.6764 1.62491C15.6764 0.724359 14.9545 0 14.057 0C13.1692 0 12.4375 0.724359 12.4375 1.62491C12.4375 2.52547 13.1594 3.24983 14.057 3.24983C14.9545 3.24983 15.6764 2.52547 15.6764 1.62491ZM26.5062 90.6429C27.4006 90.6429 28.1256 89.9154 28.1256 89.018C28.1256 88.1206 27.4006 87.3931 26.5062 87.3931C25.6118 87.3931 24.8867 88.1206 24.8867 89.018C24.8867 89.9154 25.6118 90.6429 26.5062 90.6429ZM28.1256 76.5375C28.1256 75.637 27.4037 74.9126 26.5062 74.9126C25.6086 74.9126 24.8867 75.637 24.8867 76.5375C24.8867 77.4381 25.6086 78.1624 26.5062 78.1624C27.4037 78.1624 28.1256 77.4381 28.1256 76.5375ZM26.5062 65.6717C27.4006 65.6717 28.1256 64.9442 28.1256 64.0468C28.1256 63.1494 27.4006 62.4219 26.5062 62.4219C25.6118 62.4219 24.8867 63.1494 24.8867 64.0468C24.8867 64.9442 25.6118 65.6717 26.5062 65.6717ZM28.1256 51.5663C28.1256 50.6658 27.4037 49.9414 26.5062 49.9414C25.6086 49.9414 24.8867 50.6658 24.8867 51.5663C24.8867 52.4669 25.6086 53.1912 26.5062 53.1912C27.4037 53.1912 28.1256 52.4669 28.1256 51.5663ZM26.5062 40.7015C27.4006 40.7015 28.1256 39.974 28.1256 39.0766C28.1256 38.1792 27.4006 37.4517 26.5062 37.4517C25.6118 37.4517 24.8867 38.1792 24.8867 39.0766C24.8867 39.974 25.6118 40.7015 26.5062 40.7015ZM28.1256 26.5956C28.1256 27.493 27.4006 28.2205 26.5062 28.2205C25.6118 28.2205 24.8867 27.493 24.8867 26.5956C24.8867 25.6982 25.6118 24.9707 26.5062 24.9707C27.4006 24.9707 28.1256 25.6982 28.1256 26.5956ZM26.5062 12.4805C27.4037 12.4805 28.1256 13.2048 28.1256 14.1054C28.1256 15.0059 27.4037 15.7303 26.5062 15.7303C25.6086 15.7303 24.8867 15.0059 24.8867 14.1054C24.8867 13.2146 25.6086 12.4805 26.5062 12.4805ZM28.1256 1.62491C28.1256 2.52233 27.4006 3.24983 26.5062 3.24983C25.6118 3.24983 24.8867 2.52233 24.8867 1.62491C24.8867 0.727499 25.6118 0 26.5062 0C27.4006 0 28.1256 0.727499 28.1256 1.62491ZM38.9437 87.3931C39.8412 87.3931 40.5631 88.1174 40.5631 89.018C40.5631 89.9185 39.8412 90.6429 38.9437 90.6429C38.0461 90.6429 37.3242 89.9185 37.3242 89.018C37.3242 88.1174 38.0559 87.3931 38.9437 87.3931ZM40.5631 76.5375C40.5631 75.637 39.8412 74.9126 38.9437 74.9126C38.0559 74.9126 37.3242 75.637 37.3242 76.5375C37.3242 77.4381 38.0461 78.1624 38.9437 78.1624C39.8412 78.1624 40.5631 77.4381 40.5631 76.5375ZM38.9437 62.4219C39.8412 62.4219 40.5631 63.1462 40.5631 64.0468C40.5631 64.9473 39.8412 65.6717 38.9437 65.6717C38.0461 65.6717 37.3242 64.9473 37.3242 64.0468C37.3242 63.156 38.0559 62.4219 38.9437 62.4219ZM40.5631 51.5663C40.5631 50.6658 39.8412 49.9414 38.9437 49.9414C38.0559 49.9414 37.3242 50.6658 37.3242 51.5663C37.3242 52.4669 38.0461 53.1912 38.9437 53.1912C39.8412 53.1912 40.5631 52.4669 40.5631 51.5663ZM38.9437 37.4517C39.8412 37.4517 40.5631 38.176 40.5631 39.0766C40.5631 39.9771 39.8412 40.7015 38.9437 40.7015C38.0461 40.7015 37.3242 39.9771 37.3242 39.0766C37.3242 38.1858 38.0559 37.4517 38.9437 37.4517ZM40.5631 26.5956C40.5631 25.6951 39.8412 24.9707 38.9437 24.9707C38.0559 24.9707 37.3242 25.6951 37.3242 26.5956C37.3242 27.4962 38.0461 28.2205 38.9437 28.2205C39.8412 28.2205 40.5631 27.4962 40.5631 26.5956ZM38.9437 12.4805C39.8412 12.4805 40.5631 13.2048 40.5631 14.1054C40.5631 15.0059 39.8412 15.7303 38.9437 15.7303C38.0461 15.7303 37.3242 15.0059 37.3242 14.1054C37.3242 13.2146 38.0559 12.4805 38.9437 12.4805ZM40.5631 1.62491C40.5631 0.724359 39.8412 0 38.9437 0C38.0559 0 37.3242 0.724359 37.3242 1.62491C37.3242 2.52547 38.0461 3.24983 38.9437 3.24983C39.8412 3.24983 40.5631 2.52547 40.5631 1.62491ZM51.3929 90.6429C52.2873 90.6429 53.0123 89.9154 53.0123 89.018C53.0123 88.1206 52.2873 87.3931 51.3929 87.3931C50.4985 87.3931 49.7734 88.1206 49.7734 89.018C49.7734 89.9154 50.4985 90.6429 51.3929 90.6429ZM53.0123 76.5375C53.0123 75.637 52.2904 74.9126 51.3929 74.9126C50.4954 74.9126 49.7734 75.637 49.7734 76.5375C49.7734 77.4381 50.4954 78.1624 51.3929 78.1624C52.2904 78.1624 53.0123 77.4381 53.0123 76.5375ZM51.3929 65.6717C52.2873 65.6717 53.0123 64.9442 53.0123 64.0468C53.0123 63.1494 52.2873 62.4219 51.3929 62.4219C50.4985 62.4219 49.7734 63.1494 49.7734 64.0468C49.7734 64.9442 50.4985 65.6717 51.3929 65.6717ZM53.0123 51.5663C53.0123 50.6658 52.2904 49.9414 51.3929 49.9414C50.4954 49.9414 49.7734 50.6658 49.7734 51.5663C49.7734 52.4669 50.4954 53.1912 51.3929 53.1912C52.2904 53.1912 53.0123 52.4669 53.0123 51.5663ZM51.3929 40.7015C52.2873 40.7015 53.0123 39.974 53.0123 39.0766C53.0123 38.1792 52.2873 37.4517 51.3929 37.4517C50.4985 37.4517 49.7734 38.1792 49.7734 39.0766C49.7734 39.974 50.4985 40.7015 51.3929 40.7015ZM53.0123 26.5956C53.0123 27.493 52.2873 28.2205 51.3929 28.2205C50.4985 28.2205 49.7734 27.493 49.7734 26.5956C49.7734 25.6982 50.4985 24.9707 51.3929 24.9707C52.2873 24.9707 53.0123 25.6982 53.0123 26.5956ZM51.3929 12.4805C52.2904 12.4805 53.0123 13.2048 53.0123 14.1054C53.0123 15.0059 52.2904 15.7303 51.3929 15.7303C50.4954 15.7303 49.7734 15.0059 49.7734 14.1054C49.7734 13.2146 50.4954 12.4805 51.3929 12.4805ZM53.0123 1.62491C53.0123 2.52233 52.2873 3.24983 51.3929 3.24983C50.4985 3.24983 49.7734 2.52233 49.7734 1.62491C49.7734 0.727499 50.4985 0 51.3929 0C52.2873 0 53.0123 0.727499 53.0123 1.62491Z" fill="#C3C3C3"/>
</svg>
