<svg width="66" height="29" viewBox="0 0 66 29" fill="none" xmlns="http://www.w3.org/2000/svg">
<path fill-rule="evenodd" clip-rule="evenodd" d="M64.7422 2.12855C64.7422 0.944245 65.6985 0 66.8621 0C68.0416 0 68.982 0.960248 68.982 2.12855C68.982 3.31286 68.0256 4.2571 66.8621 4.2571C65.6985 4.2571 64.7422 3.31286 64.7422 2.12855ZM69.0015 14.4684C69.0015 13.2928 68.0524 12.3398 66.8816 12.3398C65.7108 12.3398 64.7617 13.2928 64.7617 14.4684C64.7617 15.644 65.7108 16.5969 66.8816 16.5969C68.0524 16.5969 69.0015 15.644 69.0015 14.4684ZM2.11989 24.6787C0.956341 24.6787 0 25.623 0 26.8073C0 27.9756 0.940402 28.9358 2.11989 28.9358C3.29938 28.9358 4.23978 27.9756 4.23978 26.8073C4.23978 25.639 3.28344 24.6787 2.11989 24.6787ZM12.9414 26.8073C12.9414 25.623 13.8977 24.6787 15.0613 24.6787C16.2408 24.6787 17.1812 25.639 17.1812 26.8073C17.1812 27.9756 16.2408 28.9358 15.0772 28.9358C13.8977 28.9358 12.9414 27.9756 12.9414 26.8073ZM28.0222 24.6787C26.8587 24.6787 25.9023 25.623 25.9023 26.8073C25.9023 27.9756 26.8587 28.9358 28.0222 28.9358C29.2017 28.9358 30.1421 27.9756 30.1421 26.8073C30.1421 25.639 29.2017 24.6787 28.0222 24.6787ZM38.8594 26.8073C38.8594 25.623 39.8157 24.6787 40.9793 24.6787C42.1588 24.6787 43.0992 25.639 43.0992 26.8073C43.0992 27.9756 42.1428 28.9358 40.9793 28.9358C39.7998 28.9358 38.8594 27.9756 38.8594 26.8073ZM53.9207 24.6787C52.7571 24.6787 51.8008 25.623 51.8008 26.8073C51.8008 27.9756 52.7571 28.9358 53.9207 28.9358C55.1002 28.9358 56.0406 27.9756 56.0406 26.8073C56.0406 25.639 55.1002 24.6787 53.9207 24.6787ZM66.8621 24.6787C65.6985 24.6787 64.7422 25.623 64.7422 26.8073C64.7422 27.9756 65.6985 28.9358 66.878 28.9358C68.0416 28.9358 68.982 27.9756 68.982 26.8073C68.982 25.639 68.0416 24.6787 66.8621 24.6787ZM53.9207 12.3398C55.0915 12.3398 56.0406 13.2928 56.0406 14.4684C56.0406 15.644 55.0915 16.5969 53.9207 16.5969C52.7499 16.5969 51.8008 15.644 51.8008 14.4684C51.8008 13.2928 52.7499 12.3398 53.9207 12.3398ZM43.0992 14.4684C43.0992 13.2928 42.15 12.3398 40.9793 12.3398C39.8085 12.3398 38.8594 13.2928 38.8594 14.4684C38.8594 15.644 39.8085 16.5969 40.9793 16.5969C42.15 16.5969 43.0992 15.644 43.0992 14.4684ZM28.0222 12.3398C29.193 12.3398 30.1421 13.2928 30.1421 14.4684C30.1421 15.644 29.193 16.5969 28.0222 16.5969C26.8514 16.5969 25.9023 15.644 25.9023 14.4684C25.9023 13.2928 26.8514 12.3398 28.0222 12.3398ZM17.1968 14.4684C17.1968 13.2928 16.2477 12.3398 15.0769 12.3398C13.9061 12.3398 12.957 13.2928 12.957 14.4684C12.957 15.644 13.9061 16.5969 15.0769 16.5969C16.2477 16.5969 17.1968 15.644 17.1968 14.4684ZM2.11989 12.3398C3.29067 12.3398 4.23978 13.2928 4.23978 14.4684C4.23978 15.644 3.29067 16.5969 2.11989 16.5969C0.949107 16.5969 0 15.644 0 14.4684C0 13.2928 0.949107 12.3398 2.11989 12.3398ZM53.9207 0C52.7571 0 51.8008 0.944245 51.8008 2.12855C51.8008 3.31286 52.7571 4.2571 53.9207 4.2571C55.0842 4.2571 56.0406 3.31286 56.0406 2.12855C56.0406 0.960248 55.1002 0 53.9207 0ZM38.8594 2.12855C38.8594 0.944245 39.8157 0 40.9793 0C42.1588 0 43.0992 0.960248 43.0992 2.12855C43.0992 3.31286 42.1428 4.2571 40.9793 4.2571C39.7998 4.2571 38.8594 3.31286 38.8594 2.12855ZM28.0222 0C26.8587 0 25.9023 0.944245 25.9023 2.12855C25.9023 3.31286 26.8587 4.2571 28.0222 4.2571C29.1858 4.2571 30.1421 3.31286 30.1421 2.12855C30.1421 0.960248 29.2017 0 28.0222 0ZM12.9414 2.12855C12.9414 0.944245 13.8977 0 15.0613 0C16.2408 0 17.1812 0.960248 17.1812 2.12855C17.1812 3.31286 16.2248 4.2571 15.0613 4.2571C13.8977 4.2571 12.9414 3.31286 12.9414 2.12855ZM2.11989 0C0.956341 0 0 0.944245 0 2.12855C0 3.31286 0.956341 4.2571 2.11989 4.2571C3.28344 4.2571 4.23978 3.31286 4.23978 2.12855C4.23978 0.960248 3.28344 0 2.11989 0Z" fill="#6184FF"/>
</svg>
