<svg width="35" height="30" viewBox="0 0 35 30" fill="none" xmlns="http://www.w3.org/2000/svg">
<path d="M33.345 22.2432C34.221 21.0758 34.3351 19.0934 33.166 18.1007C31.8761 17.0059 30.1967 17.6374 28.8011 17.8792C27.2343 18.1502 25.6801 17.9809 24.1725 17.2688C21.1238 15.8273 18.3679 13.5111 15.5641 11.5134C14.1916 10.5357 13.0195 9.40534 11.7451 8.32157C10.1198 6.93919 9.79952 6.7769 9.79971 4.54143C9.80042 2.332 8.70726 -0.335177 5.94874 0.194297C3.44574 0.674477 3.73988 3.29204 3.60614 4.93618C3.59504 5.07357 3.49936 5.19381 3.36735 5.23198C1.22876 5.84172 -0.708675 8.81116 1.03301 10.6284C2.23646 11.8826 3.49099 11.5854 5.0284 11.511C6.63005 11.4331 7.81237 12.006 9.07565 12.965C12.4453 15.5244 15.7289 18.1776 19.2758 20.5207C20.6478 21.4265 21.9674 22.143 22.479 23.7704C23.0204 25.4894 22.9426 27.1242 24.1877 28.5936C25.8675 30.5775 27.9187 30.3615 29.2225 28.2055C29.7465 27.3389 29.7415 26.8078 29.7736 25.8494C29.7983 25.1348 29.2473 24.8988 30.0304 24.3085C30.6641 23.9219 32.5056 23.3597 33.345 22.2432Z" fill="#90D64A"/>
<path d="M33.345 22.2432C34.221 21.0758 34.3351 19.0934 33.166 18.1007C31.8761 17.0059 30.1967 17.6374 28.8011 17.8792C27.2343 18.1502 25.6801 17.9809 24.1725 17.2688C21.1238 15.8273 18.3679 13.5111 15.5641 11.5134C14.1916 10.5357 13.0195 9.40534 11.7451 8.32157C10.1198 6.93919 9.79952 6.7769 9.79971 4.54143C9.80042 2.332 8.70726 -0.335177 5.94874 0.194297C3.44574 0.674477 3.73988 3.29204 3.60614 4.93618C3.59504 5.07357 3.49936 5.19381 3.36735 5.23198C1.22876 5.84172 -0.708675 8.81116 1.03301 10.6284C2.23646 11.8826 3.49099 11.5854 5.0284 11.511C6.63005 11.4331 7.81237 12.006 9.07565 12.965C12.4453 15.5244 15.7289 18.1776 19.2758 20.5207C20.6478 21.4265 21.9674 22.143 22.479 23.7704C23.0204 25.4894 22.9426 27.1242 24.1877 28.5936C25.8675 30.5775 27.9187 30.3615 29.2225 28.2055C29.7465 27.3389 29.7415 26.8078 29.7736 25.8494C29.7983 25.1348 29.2473 24.8988 30.0304 24.3085C30.6641 23.9219 32.5056 23.3597 33.345 22.2432Z" fill="#BC9AF3"/>
</svg>
