<svg width="36" height="14" viewBox="0 0 36 14" fill="none" xmlns="http://www.w3.org/2000/svg">
<path d="M0.877302 10.8241C0.907164 12.2216 1.99281 13.7829 3.46048 13.84C5.07952 13.9026 5.97178 12.4342 6.88049 11.4271C7.90102 10.2969 9.17223 9.50596 10.7292 9.15145C13.8785 8.43588 17.324 8.55252 20.6175 8.40075C22.2296 8.32629 23.7809 8.48535 25.3817 8.54881C27.4235 8.62993 27.7608 8.5629 29.0818 10.2475C30.3871 11.9129 32.7872 13.2766 34.553 11.2473C36.1553 9.40615 34.3866 7.60753 33.5157 6.28956C33.4428 6.17947 33.4439 6.03232 33.5208 5.92553C34.7719 4.20212 34.4769 0.819442 32.0904 0.479449C30.4423 0.245606 29.6726 1.21103 28.5581 2.17571C27.3972 3.18103 26.1677 3.44811 24.6489 3.47203C20.5971 3.53492 16.5547 3.47629 12.4971 3.80699C10.9279 3.9353 9.51001 4.1753 8.16271 3.2513C6.73872 2.27596 5.83115 0.998075 4.02446 0.626695C1.58616 0.124582 0.168171 1.49956 0.459946 3.89485C0.577255 4.85754 0.894868 5.25479 1.43716 5.996C1.84091 6.54906 2.39559 6.40126 2.15437 7.30892C1.9053 7.97474 0.849937 9.48674 0.877302 10.8241Z" fill="#FFBA0C"/>
</svg>
