<svg width="30" height="30" viewBox="0 0 30 30" fill="none" xmlns="http://www.w3.org/2000/svg">
<path d="M0.955464 6.66893C0.0415693 7.62695 -0.273092 9.40051 0.673927 10.4197C1.71889 11.5438 3.29917 11.1544 4.58219 11.0857C6.02253 11.0091 7.40447 11.3277 8.6865 12.1303C11.2787 13.7547 13.5136 16.1357 15.8258 18.2349C16.9578 19.2623 17.8927 20.4058 18.9249 21.5183C20.2413 22.9372 20.5124 23.1177 20.2734 25.1314C20.0366 27.1216 20.7362 29.6411 23.2777 29.4589C25.5838 29.2939 25.5986 26.9045 25.8948 25.4378C25.9195 25.3152 26.0185 25.2171 26.1415 25.1968C28.1331 24.8761 30.1958 22.4083 28.8211 20.5852C27.871 19.3267 26.7092 19.4604 25.3163 19.3631C23.8652 19.2621 22.8614 18.6196 21.8259 17.6207C19.064 14.955 16.3897 12.214 13.445 9.7243C12.3059 8.76169 11.1938 7.97521 10.9069 6.45454C10.6029 4.84816 10.8477 3.38383 9.88312 1.9271C8.58196 -0.0395002 6.71121 -0.0641927 5.30626 1.73866C4.74162 2.46328 4.68933 2.9422 4.55799 3.80216C4.4594 4.44324 4.9305 4.71473 4.16198 5.16279C3.54982 5.44327 1.8309 5.7529 0.955464 6.66893Z" fill="#52D4C5"/>
</svg>
