<svg width="34" height="29" viewBox="0 0 34 29" fill="none" xmlns="http://www.w3.org/2000/svg">
<path d="M1.0581 7.95771C0.255044 9.12061 0.220217 11.043 1.38916 11.9589C2.67891 12.9689 4.27965 12.2939 5.6207 12.0067C7.12626 11.6849 8.63642 11.7894 10.1223 12.4208C13.1269 13.6994 15.8815 15.8353 18.6704 17.6612C20.0356 18.5548 21.2127 19.6037 22.487 20.6037C24.1122 21.8792 24.4283 22.024 24.5133 24.1869C24.5969 26.3246 25.7562 28.8635 28.4049 28.246C30.8083 27.686 30.4239 25.1647 30.4906 23.5689C30.4961 23.4355 30.5841 23.3155 30.7104 23.2736C32.7563 22.6021 34.5176 19.6553 32.7632 17.9635C31.551 16.7959 30.3486 17.1313 28.8639 17.2618C27.3173 17.3983 26.1515 16.8891 24.8927 16.0093C21.535 13.6615 18.2569 11.2197 14.7359 9.08795C13.3739 8.26385 12.0699 7.62092 11.5129 6.06587C10.9235 4.42334 10.9364 2.83868 9.67578 1.46447C7.97491 -0.390888 5.99864 -0.103764 4.81935 2.03196C4.34541 2.89037 4.37046 3.40399 4.37596 4.33254C4.37933 5.02486 4.92141 5.2322 4.18625 5.83319C3.58787 6.23135 1.82763 6.84549 1.0581 7.95771Z" fill="#90D64A"/>
</svg>
