<svg width="41" height="26" viewBox="0 0 41 26" fill="none" xmlns="http://www.w3.org/2000/svg">
<path d="M37.1321 2.42968C36.5643 0.930541 34.7925 -0.341081 33.1841 0.159605C31.4101 0.712371 31.0083 2.64155 30.4119 4.07837C29.7418 5.69109 28.6708 7.03324 27.1237 8.01308C23.9936 9.99341 20.2245 11.1877 16.7226 12.6138C15.0084 13.3121 13.2707 13.7346 11.5159 14.2794C9.27778 14.9742 8.93888 15.1759 6.8653 13.8611C4.81619 12.5612 1.69919 12.0067 0.568162 14.877C-0.458341 17.4812 2.14276 18.7476 3.58926 19.8386C3.71018 19.9297 3.76546 20.0891 3.72323 20.234C3.03121 22.5764 4.64641 26.1199 7.35634 25.5729C9.22749 25.1941 9.68953 23.8555 10.5246 22.3857C11.3942 20.8541 12.6209 20.0943 14.2535 19.4864C18.6092 17.8657 23.0014 16.38 27.2607 14.4677C28.9078 13.7276 30.3484 12.9249 32.1589 13.4074C34.0719 13.916 35.5427 14.9495 37.6379 14.6587C40.466 14.267 41.4719 12.2374 40.2386 9.75999C39.7429 8.76432 39.2473 8.45662 38.3771 7.86322C37.7288 7.42011 37.1858 7.79243 37.0987 6.71885C37.1128 5.90369 37.6742 3.86486 37.1321 2.42968Z" fill="#90D64A"/>
</svg>
