<svg width="36" height="30" viewBox="0 0 36 30" fill="none" xmlns="http://www.w3.org/2000/svg">
<path d="M0.820385 8.46285C-0.0279513 9.69133 -0.0647423 11.7221 1.17012 12.6896C2.5326 13.7566 4.22361 13.0436 5.64028 12.7402C7.23074 12.4002 8.82606 12.5106 10.3957 13.1777C13.5698 14.5283 16.4797 16.7846 19.4258 18.7135C20.8681 19.6575 22.1115 20.7656 23.4577 21.822C25.1745 23.1694 25.5085 23.3224 25.5983 25.6072C25.6865 27.8655 26.9112 30.5475 29.7093 29.8953C32.2483 29.3037 31.8422 26.6402 31.9127 24.9543C31.9185 24.8135 32.0114 24.6867 32.1448 24.6424C34.3061 23.9331 36.1667 20.8201 34.3134 19.0329C33.0329 17.7994 31.7626 18.1537 30.1943 18.2916C28.5604 18.4358 27.3289 17.8979 25.9991 16.9685C22.452 14.4883 18.9891 11.9088 15.2695 9.65682C13.8307 8.78626 12.4531 8.10707 11.8647 6.46433C11.2421 4.72917 11.2558 3.05514 9.92403 1.60345C8.12725 -0.356539 6.03954 -0.0532234 4.79375 2.20294C4.29308 3.10975 4.31954 3.65234 4.32535 4.63325C4.32891 5.36461 4.90156 5.58364 4.12494 6.21853C3.49282 6.63913 1.63332 7.28791 0.820385 8.46285Z" fill="#90D64A"/>
</svg>
