<svg width="29" height="29" viewBox="0 0 29 29" fill="none" xmlns="http://www.w3.org/2000/svg">
<path d="M6.47033 27.4926C7.38318 28.3657 9.07492 28.6682 10.0485 27.766C11.1223 26.7704 10.7528 25.2622 10.6889 24.038C10.6177 22.6637 10.9234 21.3456 11.6908 20.1235C13.2439 17.6523 15.5185 15.5231 17.5242 13.3197C18.5059 12.2411 19.5981 11.3505 20.6608 10.3671C22.0163 9.11301 22.1888 8.8545 24.1098 9.08519C26.0083 9.31363 28.413 8.64931 28.2424 6.22427C28.0879 4.02389 25.8083 4.00671 24.4092 3.72225C24.2923 3.69854 24.1989 3.60393 24.1797 3.48655C23.8763 1.58595 21.5244 -0.385134 19.7832 0.92413C18.5813 1.82894 18.7073 2.93763 18.6127 4.26642C18.5145 5.65077 17.9003 6.60768 16.9459 7.59433C14.3991 10.226 11.7805 12.774 9.40135 15.5803C8.48148 16.6659 7.72969 17.726 6.27848 17.9978C4.74546 18.2858 3.34868 18.0503 1.9576 18.9687C0.0796331 20.2077 0.0536859 21.9925 1.77197 23.3352C2.4626 23.8749 2.91946 23.9254 3.73977 24.0518C4.35129 24.1467 4.61092 23.6975 5.03743 24.4313C5.30425 25.0158 5.59747 26.6561 6.47033 27.4926Z" fill="#FFBA0C"/>
</svg>
