<svg width="37" height="27" viewBox="0 0 37 27" fill="none" xmlns="http://www.w3.org/2000/svg">
<path d="M5.43646 25.2392C6.15455 26.4984 7.91615 27.3851 9.28242 26.7116C10.7894 25.9682 10.8769 24.1884 11.2075 22.8211C11.5791 21.2862 12.347 19.9366 13.5912 18.8437C16.1086 16.6344 19.3075 15.0374 22.235 13.2708C23.6679 12.4059 25.1608 11.784 26.6516 11.0505C28.5531 10.115 28.8274 9.8872 30.8647 10.7699C32.878 11.6429 35.7403 11.6996 36.3468 8.97663C36.8974 6.50594 34.3957 5.74058 32.9501 4.9696C32.8293 4.90523 32.7575 4.77057 32.7748 4.63519C33.0635 2.44546 31.1222 -0.492561 28.7784 0.377279C27.1603 0.978876 26.9359 2.23953 26.3967 3.67001C25.8354 5.16043 24.8465 6.01176 23.4737 6.78441C19.8108 8.84487 16.0965 10.7899 12.5608 13.0973C11.1936 13.9901 10.0196 14.9098 8.33455 14.7335C6.55415 14.5483 5.095 13.832 3.26429 14.3866C0.793131 15.1343 0.180148 17.0888 1.63031 19.1283C2.21319 19.9479 2.69914 20.1531 3.55996 20.5607C4.20147 20.8653 4.63409 20.4564 4.8629 21.4031C4.96499 22.1332 4.75034 24.0334 5.43646 25.2392Z" fill="#FA7272"/>
</svg>
