<svg width="34" height="14" viewBox="0 0 34 14" fill="none" xmlns="http://www.w3.org/2000/svg">
<path d="M0.869222 10.6215C0.917208 11.9617 1.9803 13.4444 3.38906 13.4789C4.9431 13.5166 5.77874 12.0956 6.63655 11.1169C7.59993 10.0186 8.80849 9.24217 10.2972 8.88053C13.3085 8.1505 16.6155 8.21471 19.7729 8.02354C21.3184 7.9298 22.8087 8.06092 24.3454 8.09965C26.3052 8.14921 26.6278 8.08024 27.9185 9.67808C29.1937 11.2576 31.515 12.5327 33.1809 10.5615C34.6925 8.77303 32.9709 7.07205 32.1172 5.81975C32.0458 5.71514 32.0447 5.57396 32.117 5.47046C33.2934 3.79983 32.9636 0.558842 30.6695 0.265705C29.0852 0.0641796 28.3602 1.00098 27.3043 1.94184C26.2046 2.92233 25.0288 3.19556 23.5721 3.23953C19.686 3.35593 15.8072 3.35562 11.9193 3.72902C10.4156 3.87382 9.05876 4.12368 7.75347 3.25591C6.37391 2.33995 5.48558 1.12661 3.74725 0.795338C1.40118 0.347392 0.0599046 1.68606 0.372956 3.97987C0.498815 4.90178 0.809005 5.27848 1.33949 5.98203C1.73447 6.507 2.26454 6.35754 2.0457 7.23162C1.81598 7.87379 0.824464 9.3389 0.869222 10.6215Z" fill="#A672FA"/>
</svg>
