<svg width="34" height="19" viewBox="0 0 34 19" fill="none" xmlns="http://www.w3.org/2000/svg">
<path d="M0.0949 9.86198C-0.187811 11.1743 0.479518 12.8743 1.83811 13.2539C3.33691 13.6723 4.49694 12.4986 5.56982 11.7597C6.77453 10.9306 8.13807 10.4741 9.67155 10.4889C12.7731 10.5203 15.9664 11.3952 19.0773 11.9854C20.6002 12.2742 22.0142 12.7676 23.4958 13.1827C25.3854 13.7123 25.7154 13.7246 26.5753 15.5923C27.4247 17.4384 29.3641 19.246 31.4649 17.7424C33.3712 16.3783 32.1185 14.3047 31.5977 12.8797C31.5541 12.7607 31.5878 12.6234 31.6834 12.5407C33.2354 11.2086 33.7116 7.9825 31.5575 7.1344C30.0696 6.54958 29.1358 7.28053 27.8801 7.93412C26.572 8.61539 25.3639 8.59165 23.9395 8.27643C20.1398 7.43459 16.3759 6.48129 12.5113 5.88841C11.0166 5.6595 9.63851 5.56858 8.58506 4.4058C7.47138 3.178 6.90745 1.78232 5.30196 1.03376C3.13539 0.0226567 1.50491 0.992163 1.24513 3.29499C1.14075 4.22054 1.34921 4.6623 1.69114 5.47536C1.94545 6.08184 2.49655 6.06703 2.06943 6.86147C1.68873 7.4282 0.366596 8.60633 0.0949 9.86198Z" fill="#90D64A"/>
</svg>
